# xmcd
#
# Track frame offsets:
#	150
#	17256
#	30307
#	50571
#	63030
#	81075
#	95354
#	111359
#	126408
#	139594
#	155944
#	173805
#	190852
#	210276
#
# Disc length: 2991 seconds
#
# Revision: 1
# Processed by: cddbd v1.5.2PL0 Copyright (c) Steve Scherf et al.
# Submitted via: audiograbber 1.83.01
#
DISCID=b10bad0e
DTITLE=Nisse Hellberg - SnackBar Blues
DYEAR=2006
DGENRE=Rock
TTITLE0=Snackbar Blues
TTITLE1=Tufft Jobb
TTITLE2=Låt Kvasten Gå
TTITLE3=En Stad som Aldrig Vaknar
TTITLE4=Det Kokar Ner till Ren Blues
TTITLE5=Kärlekens Express
TTITLE6=Vår Egen Stad
TTITLE7=Lyckliga Gatan
TTITLE8=Grön December
TTITLE9=Bättre och Bättre Dag för Dag
TTITLE10=Blues Håll Dig Undan från Mitt Hus
TTITLE11=Söderns Största Hopp
TTITLE12=En Man För Varje Öppet Hak
TTITLE13=TrettiFyran
EXTD=
EXTT0=
EXTT1=
EXTT2=
EXTT3=
EXTT4=
EXTT5=
EXTT6=
EXTT7=
EXTT8=
EXTT9=
EXTT10=
EXTT11=
EXTT12=
EXTT13=
PLAYORDER=
